<?xml version="1.0" encoding="UTF-8" standalone="no"?>
<svg
   xmlns:dc="http://purl.org/dc/elements/1.1/"
   xmlns:cc="http://creativecommons.org/ns#"
   xmlns:rdf="http://www.w3.org/1999/02/22-rdf-syntax-ns#"
   xmlns:svg="http://www.w3.org/2000/svg"
   xmlns="http://www.w3.org/2000/svg"
   xmlns:sodipodi="http://sodipodi.sourceforge.net/DTD/sodipodi-0.dtd"
   xmlns:inkscape="http://www.inkscape.org/namespaces/inkscape"
   width="128.58749mm"
   height="118.53333mm"
   viewBox="0 0 128.58749 118.53333"
   version="1.1"
   id="svg2326"
   inkscape:version="1.0 (4035a4fb49, 2020-05-01)"
   sodipodi:docname="Relay Hub 1.svg">
  <defs
     id="defs2320" />
  <sodipodi:namedview
     id="base"
     pagecolor="#ffffff"
     bordercolor="#666666"
     borderopacity="1.0"
     inkscape:pageopacity="0.0"
     inkscape:pageshadow="2"
     inkscape:zoom="0.98994949"
     inkscape:cx="296.29677"
     inkscape:cy="221.28438"
     inkscape:document-units="mm"
     inkscape:current-layer="layer1"
     inkscape:document-rotation="0"
     showgrid="false"
     showborder="true"
     inkscape:window-width="1920"
     inkscape:window-height="1009"
     inkscape:window-x="-8"
     inkscape:window-y="-8"
     inkscape:window-maximized="1"
     inkscape:snap-page="true"
     inkscape:snap-center="true"
     inkscape:snap-global="true" />
  <metadata
     id="metadata2323">
    <rdf:RDF>
      <cc:Work
         rdf:about="">
        <dc:format>image/svg+xml</dc:format>
        <dc:type
           rdf:resource="http://purl.org/dc/dcmitype/StillImage" />
        <dc:title></dc:title>
      </cc:Work>
    </rdf:RDF>
  </metadata>
  <g
     inkscape:label="Layer 1"
     inkscape:groupmode="layer"
     id="layer1"
     transform="translate(34.936367,-219.798)">
    <path
       inkscape:export-ydpi="300"
       inkscape:export-xdpi="300"
       d="M -34.936367,219.798 H 93.651127 V 338.33134 H -34.936367 Z"
       style="fill:#ffffff;fill-opacity:1;fill-rule:evenodd;stroke-width:1.465;stroke-linecap:round;stroke-linejoin:round;paint-order:stroke fill markers;stop-color:#000000"
       id="rect832" />
    <path
       inkscape:export-ydpi="300"
       inkscape:export-xdpi="300"
       transform="matrix(0.26458333,0,0,0.26458333,-34.936367,219.798)"
       id="path934"
       style="fill:#000000;fill-opacity:1;fill-rule:evenodd;stroke:none;stroke-width:0.575811;stroke-linecap:round;stroke-linejoin:round;stroke-miterlimit:4;stroke-dasharray:none;paint-order:stroke fill markers;stop-color:#000000"
       d="M 245.01953 34.691406 A 191.32826 191.32826 0 0 0 53.691406 226.01953 A 191.32826 191.32826 0 0 0 245.01953 417.34766 A 191.32826 191.32826 0 0 0 436.34766 226.01953 A 191.32826 191.32826 0 0 0 245.01953 34.691406 z M 245.01953 54.244141 A 171.7761 171.7761 0 0 1 416.79688 226.01953 A 171.7761 171.7761 0 0 1 245.01953 397.79688 A 171.7761 171.7761 0 0 1 73.244141 226.01953 A 171.7761 171.7761 0 0 1 245.01953 54.244141 z M 245.08789 87.339844 A 29.041886 29.041886 0 0 0 216.04688 116.38281 A 29.041886 29.041886 0 0 0 245.08789 145.42383 A 29.041886 29.041886 0 0 0 274.13086 116.38281 A 29.041886 29.041886 0 0 0 245.08789 87.339844 z M 245.22656 169.95898 A 56.316004 56.316004 0 0 0 189.02539 226.27344 A 56.316004 56.316004 0 0 0 245.33984 282.58984 A 56.316004 56.316004 0 0 0 301.65625 226.27344 A 56.316004 56.316004 0 0 0 245.33984 169.95898 A 56.316004 56.316004 0 0 0 245.22656 169.95898 z M 130.63867 197.73828 A 29.041886 29.041886 0 0 0 101.89844 226.7793 A 29.041886 29.041886 0 0 0 130.94141 255.82031 A 29.041886 29.041886 0 0 0 159.98242 226.7793 A 29.041886 29.041886 0 0 0 130.94141 197.73828 A 29.041886 29.041886 0 0 0 130.63867 197.73828 z M 358.93359 197.73828 A 29.041886 29.041886 0 0 0 330.19336 226.7793 A 29.041886 29.041886 0 0 0 359.23633 255.82031 A 29.041886 29.041886 0 0 0 388.27734 226.7793 A 29.041886 29.041886 0 0 0 359.23633 197.73828 A 29.041886 29.041886 0 0 0 358.93359 197.73828 z M 245.08789 307.08594 A 29.041886 29.041886 0 0 0 216.04688 336.12891 A 29.041886 29.041886 0 0 0 245.08789 365.16992 A 29.041886 29.041886 0 0 0 274.13086 336.12891 A 29.041886 29.041886 0 0 0 245.08789 307.08594 z " />
    <path
       inkscape:export-ydpi="300"
       inkscape:export-xdpi="300"
       id="path955"
       style="fill:#06b4ce;stroke:none;stroke-width:0.999999px;stroke-linecap:butt;stroke-linejoin:miter;stroke-opacity:1;fill-opacity:1"
       inkscape:transform-center-x="19.260265"
       inkscape:transform-center-y="-18.41474"
       d="M 286.91016 117.60156 C 286.91016 117.60156 286.23931 121.83488 285.62109 124.11133 C 285.00291 126.38778 283.44141 131.25 283.44141 131.25 C 283.44141 131.25 300.33707 135.06598 320.2207 154.35352 C 338.15585 171.7511 343.20312 191.44922 343.20312 191.44922 C 347.92204 189.30691 351.72269 188.40769 356.51367 188.03711 C 356.51367 188.03711 352.20517 166.22251 330.88477 145.06445 C 309.65164 123.99306 286.91016 117.60156 286.91016 117.60156 z M 204.05078 117.99805 C 204.05078 117.99805 182.02106 122.24355 160.74023 143.44141 C 139.54653 164.55249 133.02539 187.25781 133.02539 187.25781 C 133.02539 187.25781 137.2545 187.9507 139.52734 188.58203 C 141.80018 189.21336 146.65234 190.80273 146.65234 190.80273 C 146.65234 190.80273 150.56469 173.93207 169.9668 154.16016 C 187.46759 136.32578 207.38672 131.32812 207.38672 131.32812 C 205.27174 126.59691 204.3937 122.79109 204.05078 117.99805 z M 343.14062 262.96289 C 343.14062 262.96289 339.63539 279.42097 320.39844 299.35352 C 303.04648 317.33288 283.16992 322.49414 283.16992 322.49414 C 285.32422 327.20751 286.23443 331.0049 286.61719 335.79492 C 286.61719 335.79492 308.60907 331.3682 329.71289 309.99414 C 350.73028 288.70754 356.79688 266.39453 356.79688 266.39453 C 356.79688 266.39453 352.56121 265.73548 350.2832 265.12305 C 348.00519 264.51065 343.14063 262.96289 343.14062 262.96289 z M 147.32422 263.01367 C 142.62963 265.20859 138.83732 266.15008 134.05078 266.57422 C 134.05078 266.57422 138.66904 288.52887 160.22461 309.44727 C 181.69198 330.27998 204.05664 336.15234 204.05664 336.15234 C 204.05664 336.15234 204.67875 331.91216 205.27148 329.62891 C 205.86418 327.34569 207.37109 322.4668 207.37109 322.4668 C 207.37109 322.4668 190.88314 319.10503 170.78516 300.04102 C 152.65657 282.84496 147.32422 263.01367 147.32422 263.01367 z "
       transform="matrix(0.26458333,0,0,0.26458333,-34.936367,219.798)" />
  </g>
</svg>
